<svg xmlns="http://www.w3.org/2000/svg" width="134" height="45" viewBox="0 0 134 45" fill="none">
    <path
        d="M10.7758 0.500006C12.7048 0.463304 14.6038 0.977243 16.247 1.9807C17.8902 2.98416 19.2085 4.4349 20.045 6.1604L15.5824 7.83679C15.1425 6.94265 14.459 6.18862 13.6096 5.66008C12.7601 5.13154 11.7784 4.8496 10.7758 4.8462C10.0354 4.84978 9.30319 5.00132 8.62298 5.29176C7.94277 5.58221 7.32845 6.00562 6.81665 6.53675C6.30485 7.06787 5.90605 7.69584 5.64403 8.38322C5.382 9.07059 5.26212 9.80329 5.29152 10.5376C5.26212 11.272 5.382 12.0047 5.64403 12.6921C5.90605 13.3794 6.30485 14.0074 6.81665 14.5385C7.32845 15.0697 7.94277 15.4931 8.62298 15.7835C9.30319 16.074 10.0354 16.2255 10.7758 16.2291C11.7824 16.2312 12.7694 15.9531 13.6246 15.4262C14.4798 14.8994 15.169 14.145 15.6137 13.2488L20.045 14.9149C19.2085 16.6404 17.8902 18.0911 16.247 19.0946C14.6038 20.098 12.7048 20.612 10.7758 20.5753C8.09353 20.5753 5.52108 19.5177 3.6244 17.6353C1.72772 15.7529 0.662171 13.1998 0.662171 10.5376C0.662171 7.87549 1.72772 5.32238 3.6244 3.43996C5.52108 1.55754 8.09353 0.500006 10.7758 0.500006ZM31.7435 0.500006C34.4258 0.500006 36.9982 1.55754 38.8949 3.43996C40.7916 5.32238 41.8571 7.87549 41.8571 10.5376C41.8571 13.1998 40.7916 15.7529 38.8949 17.6353C36.9982 19.5177 34.4258 20.5753 31.7435 20.5753C29.0612 20.5753 26.4887 19.5177 24.592 17.6353C22.6953 15.7529 21.6298 13.1998 21.6298 10.5376C21.6298 7.87549 22.6953 5.32238 24.592 3.43996C26.4887 1.55754 29.0612 0.500006 31.7435 0.500006ZM31.7435 16.2291C32.4813 16.2213 33.2101 16.0668 33.8866 15.7745C34.5632 15.4822 35.1738 15.0581 35.6823 14.5274C36.1907 13.9968 36.5867 13.3702 36.8468 12.6849C37.1069 11.9995 37.2258 11.2694 37.1965 10.5376C37.2426 9.79877 37.1357 9.05836 36.8825 8.36204C36.6293 7.66572 36.2351 7.02824 35.7242 6.48886C35.2133 5.94948 34.5966 5.51964 33.912 5.22582C33.2273 4.93199 32.4894 4.78041 31.7435 4.78041C30.9976 4.78041 30.2596 4.93199 29.575 5.22582C28.8903 5.51964 28.2736 5.94948 27.7627 6.48886C27.2518 7.02824 26.8577 7.66572 26.6044 8.36204C26.3512 9.05836 26.2444 9.79877 26.2904 10.5376C26.2611 11.2694 26.38 11.9995 26.6401 12.6849C26.9002 13.3702 27.2962 13.9968 27.8047 14.5274C28.3131 15.0581 28.9237 15.4822 29.6003 15.7745C30.2769 16.0668 31.0056 16.2213 31.7435 16.2291ZM44.7661 20.2959V0.779404H49.5414V16.1152H58.258V20.2545L44.7661 20.2959ZM61.5215 20.2959V4.96002H55.7556V0.820796H72.0522V4.96002H66.2968V20.2959H61.5215ZM58.8836 33.6759C59.0347 35.6841 58.5711 37.6908 57.5536 39.4331C56.5361 41.1754 55.0121 42.572 53.1812 43.4401C51.3504 44.3082 49.298 44.6072 47.293 44.298C45.288 43.9888 43.4239 43.0857 41.9448 41.7072C40.4657 40.3286 39.4406 38.5389 39.0038 36.5723C38.5669 34.6057 38.7388 32.554 39.4968 30.686C40.2548 28.818 41.5636 27.2208 43.2517 26.1035C44.9399 24.9863 46.9286 24.4012 48.9576 24.4247C50.8437 24.4065 52.6952 24.9276 54.2908 25.9259C55.8865 26.9242 57.1588 28.3573 57.9556 30.0541L55.9537 30.8923C55.3426 29.5603 54.3578 28.4313 53.117 27.6403C51.8763 26.8494 50.4322 26.4299 48.9576 26.4323C46.8117 26.4323 44.7537 27.2783 43.2364 28.7842C41.7191 30.2902 40.8666 32.3327 40.8666 34.4624C40.8666 36.5921 41.7191 38.6346 43.2364 40.1405C44.7537 41.6465 46.8117 42.4925 48.9576 42.4925C50.8545 42.5273 52.6933 41.8419 54.0983 40.5764C55.5032 39.3109 56.3683 37.5607 56.5168 35.6834H47.4144V33.6759H58.8836ZM87.5355 24.4247C89.5322 24.4411 91.4793 25.0437 93.1314 26.1565C94.7836 27.2693 96.0669 28.8426 96.8196 30.6782C97.5723 32.5137 97.7607 34.5293 97.3611 36.4709C96.9615 38.4125 95.9918 40.1933 94.5741 41.5888C93.1564 42.9843 91.3542 43.9321 89.3947 44.3128C87.4351 44.6934 85.4059 44.4899 83.5627 43.7278C81.7195 42.9657 80.1449 41.6791 79.0372 40.0303C77.9296 38.3814 77.3385 36.4441 77.3384 34.4624C77.3228 33.1329 77.5765 31.8139 78.0844 30.5836C78.5924 29.3533 79.3443 28.2369 80.2955 27.3006C81.2466 26.3644 82.3776 25.6273 83.6213 25.1333C84.8651 24.6393 86.1961 24.3983 87.5355 24.4247ZM87.5355 42.4925C88.5933 42.4983 89.6416 42.2935 90.6183 41.8903C91.595 41.4871 92.4804 40.8937 93.2221 40.1451C93.9637 39.3964 94.5466 38.5078 94.9363 37.5318C95.326 36.5557 95.5146 35.512 95.4909 34.4624C95.5296 33.4022 95.3526 32.3451 94.9705 31.3542C94.5884 30.3634 94.009 29.4592 93.2669 28.6955C92.5249 27.9319 91.6353 27.3245 90.6515 26.9097C89.6676 26.4948 88.6097 26.281 87.5407 26.281C86.4717 26.281 85.4137 26.4948 84.4299 26.9097C83.4461 27.3245 82.5565 27.9319 81.8145 28.6955C81.0724 29.4592 80.493 30.3634 80.1109 31.3542C79.7288 32.3451 79.5518 33.4022 79.5905 34.4624C79.5683 35.5108 79.7575 36.553 80.147 37.5277C80.5366 38.5024 81.1186 39.39 81.8589 40.1382C82.5992 40.8864 83.4827 41.4801 84.4576 41.8844C85.4325 42.2887 86.4789 42.4955 87.5355 42.4925ZM100.443 24.7041H102.633V36.9977C102.62 37.7468 102.763 38.4906 103.055 39.1818C103.346 39.873 103.779 40.4967 104.326 41.0132C104.873 41.5297 105.522 41.9279 106.232 42.1826C106.942 42.4372 107.698 42.5427 108.451 42.4925C111.933 42.4925 114.29 40.2056 114.29 36.9977V24.7041H116.49V36.9977C116.49 41.4059 113.143 44.5 108.451 44.5C103.759 44.5 100.443 41.4059 100.443 36.9977V24.7041ZM119.607 44.2206V24.7041H127.021C130.764 24.7041 133.276 27.2394 133.276 30.5301C133.276 33.8208 130.722 36.325 127.021 36.325H121.807V44.2206H119.607ZM121.797 34.3485H127.01C127.534 34.3756 128.059 34.2965 128.551 34.116C129.043 33.9355 129.493 33.6575 129.874 33.2988C130.255 32.9401 130.558 32.5083 130.765 32.0297C130.972 31.551 131.079 31.0355 131.079 30.5146C131.079 29.9936 130.972 29.4782 130.765 28.9995C130.558 28.5208 130.255 28.089 129.874 27.7304C129.493 27.3717 129.043 27.0936 128.551 26.9132C128.059 26.7327 127.534 26.6536 127.01 26.6806H121.797V34.3485ZM10.7758 24.4247C12.7048 24.388 14.6038 24.902 16.247 25.9054C17.8902 26.9089 19.2085 28.3596 20.045 30.0851L15.5824 31.7512C15.142 30.8582 14.4582 30.1056 13.6086 29.5789C12.759 29.0521 11.7776 28.7722 10.7758 28.7709C10.038 28.7787 9.30923 28.9333 8.63267 29.2255C7.95611 29.5178 7.34552 29.9419 6.83705 30.4726C6.32858 31.0033 5.93257 31.6298 5.67247 32.3151C5.41237 33.0005 5.29347 33.7306 5.3228 34.4624C5.29347 35.1941 5.41237 35.9243 5.67247 36.6096C5.93257 37.2949 6.32858 37.9215 6.83705 38.4522C7.34552 38.9829 7.95611 39.4069 8.63267 39.6992C9.30923 39.9915 10.038 40.1461 10.7758 40.1538C11.7838 40.1562 12.772 39.877 13.6276 39.3482C14.4831 38.8193 15.1714 38.0621 15.6137 37.1632L20.045 38.8396C19.2064 40.5635 17.8877 42.0128 16.245 43.016C14.6023 44.0192 12.7043 44.5342 10.7758 44.5C9.4477 44.5 8.13256 44.2404 6.90551 43.7359C5.67846 43.2315 4.56354 42.4921 3.6244 41.5601C2.68526 40.628 1.94029 39.5214 1.43203 38.3036C0.923768 37.0858 0.66217 35.7805 0.66217 34.4624C0.66217 33.1442 0.923768 31.839 1.43203 30.6211C1.94029 29.4033 2.68526 28.2968 3.6244 27.3647C4.56354 26.4326 5.67846 25.6933 6.90551 25.1888C8.13256 24.6844 9.4477 24.4247 10.7758 24.4247ZM37.0193 24.7041V28.326L27.7606 40.04H36.988V44.1792H21.7549V40.5574L30.9719 28.8434H21.7549V24.7041H37.0193ZM76.3792 44.2206L69.9043 35.9422C72.1356 35.7352 75.4512 34.2658 75.4512 30.2818C75.4512 25.9666 71.4996 24.6524 69.3517 24.6524H61.511V44.2206H63.711V36.0249H67.2143L73.6579 44.2206H76.3792ZM63.711 26.6806H69.3517C70.3279 26.6806 71.264 27.0655 71.9543 27.7505C72.6445 28.4356 73.0323 29.3647 73.0323 30.3335C73.0323 31.3023 72.6445 32.2314 71.9543 32.9165C71.264 33.6015 70.3279 33.9864 69.3517 33.9864H63.711V26.6806Z"
        fill="white" />
    <script xmlns="" id="bw-fido2-page-script" />
</svg>